<?xml version="1.0" standalone="no"?>
<!DOCTYPE svg PUBLIC "-//W3C//DTD SVG 20010904//EN"
 "http://www.w3.org/TR/2001/REC-SVG-20010904/DTD/svg10.dtd">
<svg version="1.0" xmlns="http://www.w3.org/2000/svg"
 width="260.000000pt" height="260.000000pt" viewBox="0 0 260.000000 260.000000"
 preserveAspectRatio="xMidYMid meet">
<metadata>
Created by potrace 1.14, written by Peter Selinger 2001-2017
</metadata>
<g transform="translate(0.000000,260.000000) scale(0.100000,-0.100000)"
fill="#000000" stroke="none">
<path d="M0 1300 l0 -1300 1300 0 1300 0 0 1300 0 1300 -1300 0 -1300 0 0
-1300z m1133 1013 c3 -5 11 -61 18 -126 12 -116 12 -118 -10 -141 -13 -13 -49
-38 -82 -56 l-59 -31 0 -225 0 -224 325 0 325 0 0 225 0 225 -58 29 c-31 16
-68 38 -81 49 l-25 19 13 124 c7 68 15 127 17 131 7 11 691 10 698 0 3 -5 10
-51 16 -103 6 -52 13 -104 16 -117 6 -29 -31 -64 -109 -103 l-57 -29 2 -672 3
-671 57 -31 c81 -44 109 -71 103 -99 -2 -12 -9 -64 -15 -116 -6 -52 -13 -98
-16 -103 -7 -10 -691 -11 -698 0 -2 4 -10 62 -17 129 l-12 122 24 20 c13 11
50 33 81 48 l58 28 0 293 0 292 -325 0 -325 0 0 -292 0 -293 64 -33 c102 -53
101 -51 87 -190 -7 -64 -15 -120 -18 -124 -2 -5 -161 -8 -352 -8 l-349 0 -11
103 c-7 56 -14 114 -17 128 -4 21 2 31 31 53 19 15 56 36 80 47 l45 20 0 677
0 677 -60 29 c-101 49 -101 51 -84 186 7 63 14 121 14 128 0 9 77 12 349 12
193 0 352 -3 354 -7z"/>
</g>
</svg>
